<svg width="329" height="87" viewBox="0 0 329 87" fill="none" xmlns="http://www.w3.org/2000/svg">
<path d="M13.976 64V63.04L17.912 62.08C20.536 61.504 21.848 59.904 21.848 57.28V2.56H13.688C11.32 2.56 9.624 3.2 8.6 4.48C7.576 5.696 6.488 7.392 5.336 9.568L1.88 16.288H0.92L1.4 0.639997H56.792L57.176 16.288H56.216L52.76 9.568C51.672 7.392 50.616 5.696 49.592 4.48C48.568 3.2 46.872 2.56 44.504 2.56H36.344V57.28C36.344 59.904 37.656 61.504 40.28 62.08L44.216 63.04V64H13.976ZM69.686 65.44C65.974 65.44 62.838 64.384 60.278 62.272C57.782 60.16 56.534 57.12 56.534 53.152C56.534 50.144 58.07 47.392 61.142 44.896C64.214 42.336 69.046 40.416 75.638 39.136C76.662 38.944 77.814 38.752 79.094 38.56C80.374 38.304 81.718 38.048 83.126 37.792V30.208C83.126 25.856 82.582 22.816 81.494 21.088C80.47 19.296 78.838 18.4 76.598 18.4C75.062 18.4 73.846 18.912 72.95 19.936C72.054 20.896 71.478 22.592 71.222 25.024L71.03 26.08C70.902 28.832 70.23 30.848 69.014 32.128C67.798 33.408 66.294 34.048 64.502 34.048C62.838 34.048 61.462 33.536 60.374 32.512C59.286 31.488 58.742 30.112 58.742 28.384C58.742 25.76 59.638 23.552 61.43 21.76C63.286 19.968 65.718 18.624 68.726 17.728C71.734 16.832 74.998 16.384 78.518 16.384C84.214 16.384 88.598 17.792 91.67 20.608C94.806 23.36 96.374 27.872 96.374 34.144V55.36C96.374 58.24 97.718 59.68 100.406 59.68H102.518L103.382 60.448C102.166 61.984 100.822 63.168 99.35 64C97.942 64.832 95.926 65.248 93.302 65.248C90.486 65.248 88.246 64.608 86.582 63.328C84.982 61.984 83.926 60.224 83.414 58.048C81.494 60.096 79.51 61.856 77.462 63.328C75.478 64.736 72.886 65.44 69.686 65.44ZM75.542 59.584C76.822 59.584 78.006 59.296 79.094 58.72C80.246 58.08 81.59 57.12 83.126 55.84V39.712C82.486 39.84 81.846 39.968 81.206 40.096C80.566 40.224 79.83 40.352 78.998 40.48C76.054 41.248 73.686 42.56 71.894 44.416C70.166 46.208 69.302 48.64 69.302 51.712C69.302 54.336 69.91 56.32 71.126 57.664C72.342 58.944 73.814 59.584 75.542 59.584ZM103.483 86.08V85.12L104.635 84.736C107.003 84.096 108.187 82.56 108.187 80.128V27.904C108.187 26.496 107.931 25.44 107.419 24.736C106.971 24.032 106.107 23.552 104.827 23.296L103.483 23.008V22.048L119.803 16.48L120.763 17.44L121.627 20.416C123.739 19.136 126.075 18.144 128.635 17.44C131.259 16.736 133.947 16.384 136.699 16.384C142.203 16.384 146.555 18.496 149.755 22.72C153.019 26.88 154.651 32.864 154.651 40.672C154.651 48.352 152.859 54.4 149.275 58.816C145.755 63.232 140.763 65.44 134.299 65.44C129.243 65.44 124.987 64.704 121.531 63.232V79.84C121.531 82.4 122.683 84 124.987 84.64L126.811 85.12V86.08H103.483ZM129.691 62.656C132.891 62.656 135.419 60.992 137.275 57.664C139.195 54.336 140.155 48.8 140.155 41.056C140.155 33.312 139.259 27.904 137.467 24.832C135.675 21.696 133.083 20.128 129.691 20.128C127.323 20.128 124.699 20.896 121.819 22.432V61.12C124.251 62.144 126.875 62.656 129.691 62.656ZM176.848 65.44C172.752 65.44 169.552 64.416 167.248 62.368C165.008 60.32 163.888 57.056 163.888 52.576V19.744H157.264V18.784L159.568 18.4C161.552 17.952 163.248 17.312 164.656 16.48C166.128 15.648 167.568 14.528 168.976 13.12L176.848 4.384H177.808L177.52 17.824H188.272V19.744H177.424V54.304C177.424 56.544 177.904 58.24 178.864 59.392C179.888 60.544 181.168 61.12 182.704 61.12C184.048 61.12 185.232 60.8 186.256 60.16C187.28 59.456 188.304 58.528 189.328 57.376L190.288 58.336C189.008 60.512 187.248 62.24 185.008 63.52C182.768 64.8 180.048 65.44 176.848 65.44ZM211.441 65.44C207.345 65.44 204.145 64.416 201.841 62.368C199.601 60.32 198.481 57.056 198.481 52.576V19.744H191.857V18.784L194.161 18.4C196.145 17.952 197.841 17.312 199.249 16.48C200.721 15.648 202.161 14.528 203.569 13.12L211.441 4.384H212.401L212.113 17.824H222.865V19.744H212.017V54.304C212.017 56.544 212.497 58.24 213.457 59.392C214.481 60.544 215.761 61.12 217.297 61.12C218.641 61.12 219.825 60.8 220.849 60.16C221.873 59.456 222.897 58.528 223.921 57.376L224.881 58.336C223.601 60.512 221.841 62.24 219.601 63.52C217.361 64.8 214.641 65.44 211.441 65.44ZM251.896 65.44C247.032 65.44 242.808 64.448 239.224 62.464C235.64 60.416 232.856 57.536 230.872 53.824C228.952 50.112 227.992 45.76 227.992 40.768C227.992 35.776 229.016 31.456 231.064 27.808C233.176 24.16 236.024 21.344 239.608 19.36C243.256 17.376 247.352 16.384 251.896 16.384C256.44 16.384 260.504 17.376 264.088 19.36C267.672 21.28 270.488 24.064 272.536 27.712C274.648 31.36 275.704 35.712 275.704 40.768C275.704 45.824 274.712 50.208 272.728 53.92C270.808 57.568 268.056 60.416 264.472 62.464C260.952 64.448 256.76 65.44 251.896 65.44ZM251.896 63.52C254.136 63.52 255.928 62.88 257.272 61.6C258.616 60.32 259.576 58.048 260.152 54.784C260.792 51.52 261.112 46.912 261.112 40.96C261.112 34.944 260.792 30.304 260.152 27.04C259.576 23.776 258.616 21.504 257.272 20.224C255.928 18.944 254.136 18.304 251.896 18.304C249.656 18.304 247.832 18.944 246.424 20.224C245.08 21.504 244.088 23.776 243.448 27.04C242.872 30.304 242.584 34.944 242.584 40.96C242.584 46.912 242.872 51.52 243.448 54.784C244.088 58.048 245.08 60.32 246.424 61.6C247.832 62.88 249.656 63.52 251.896 63.52ZM304.771 65.44C299.907 65.44 295.683 64.448 292.099 62.464C288.515 60.416 285.731 57.536 283.747 53.824C281.827 50.112 280.867 45.76 280.867 40.768C280.867 35.776 281.891 31.456 283.939 27.808C286.051 24.16 288.899 21.344 292.483 19.36C296.131 17.376 300.227 16.384 304.771 16.384C309.315 16.384 313.379 17.376 316.963 19.36C320.547 21.28 323.363 24.064 325.411 27.712C327.523 31.36 328.579 35.712 328.579 40.768C328.579 45.824 327.587 50.208 325.603 53.92C323.683 57.568 320.931 60.416 317.347 62.464C313.827 64.448 309.635 65.44 304.771 65.44ZM304.771 63.52C307.011 63.52 308.803 62.88 310.147 61.6C311.491 60.32 312.451 58.048 313.027 54.784C313.667 51.52 313.987 46.912 313.987 40.96C313.987 34.944 313.667 30.304 313.027 27.04C312.451 23.776 311.491 21.504 310.147 20.224C308.803 18.944 307.011 18.304 304.771 18.304C302.531 18.304 300.707 18.944 299.299 20.224C297.955 21.504 296.963 23.776 296.323 27.04C295.747 30.304 295.459 34.944 295.459 40.96C295.459 46.912 295.747 51.52 296.323 54.784C296.963 58.048 297.955 60.32 299.299 61.6C300.707 62.88 302.531 63.52 304.771 63.52Z" fill="#40A93E"/>
</svg>
