<svg width="289" height="87" viewBox="0 0 289 87" fill="none" xmlns="http://www.w3.org/2000/svg">
<path d="M13.976 64V63.04L17.912 62.08C20.536 61.504 21.848 59.904 21.848 57.28V2.56H13.688C11.32 2.56 9.624 3.2 8.6 4.48C7.576 5.696 6.488 7.392 5.336 9.568L1.88 16.288H0.92L1.4 0.639997H56.792L57.176 16.288H56.216L52.76 9.568C51.672 7.392 50.616 5.696 49.592 4.48C48.568 3.2 46.872 2.56 44.504 2.56H36.344V57.28C36.344 59.904 37.656 61.504 40.28 62.08L44.216 63.04V64H13.976ZM62.966 65.44C59.254 65.44 56.118 64.384 53.558 62.272C51.062 60.16 49.814 57.12 49.814 53.152C49.814 50.144 51.35 47.392 54.422 44.896C57.494 42.336 62.326 40.416 68.918 39.136C69.942 38.944 71.094 38.752 72.374 38.56C73.654 38.304 74.998 38.048 76.406 37.792V30.208C76.406 25.856 75.862 22.816 74.774 21.088C73.75 19.296 72.118 18.4 69.878 18.4C68.342 18.4 67.126 18.912 66.23 19.936C65.334 20.896 64.758 22.592 64.502 25.024L64.31 26.08C64.182 28.832 63.51 30.848 62.294 32.128C61.078 33.408 59.574 34.048 57.782 34.048C56.118 34.048 54.742 33.536 53.654 32.512C52.566 31.488 52.022 30.112 52.022 28.384C52.022 25.76 52.918 23.552 54.71 21.76C56.566 19.968 58.998 18.624 62.006 17.728C65.014 16.832 68.278 16.384 71.798 16.384C77.494 16.384 81.878 17.792 84.95 20.608C88.086 23.36 89.654 27.872 89.654 34.144V55.36C89.654 58.24 90.998 59.68 93.686 59.68H95.798L96.662 60.448C95.446 61.984 94.102 63.168 92.63 64C91.222 64.832 89.206 65.248 86.582 65.248C83.766 65.248 81.526 64.608 79.862 63.328C78.262 61.984 77.206 60.224 76.694 58.048C74.774 60.096 72.79 61.856 70.742 63.328C68.758 64.736 66.166 65.44 62.966 65.44ZM68.822 59.584C70.102 59.584 71.286 59.296 72.374 58.72C73.526 58.08 74.87 57.12 76.406 55.84V39.712C75.766 39.84 75.126 39.968 74.486 40.096C73.846 40.224 73.11 40.352 72.278 40.48C69.334 41.248 66.966 42.56 65.174 44.416C63.446 46.208 62.582 48.64 62.582 51.712C62.582 54.336 63.19 56.32 64.406 57.664C65.622 58.944 67.094 59.584 68.822 59.584ZM90.0425 86.08V85.12L91.1945 84.736C93.5625 84.096 94.7465 82.56 94.7465 80.128V27.904C94.7465 26.496 94.4905 25.44 93.9785 24.736C93.5305 24.032 92.6665 23.552 91.3865 23.296L90.0425 23.008V22.048L106.362 16.48L107.322 17.44L108.186 20.416C110.298 19.136 112.634 18.144 115.194 17.44C117.818 16.736 120.506 16.384 123.259 16.384C128.762 16.384 133.115 18.496 136.315 22.72C139.579 26.88 141.211 32.864 141.211 40.672C141.211 48.352 139.418 54.4 135.834 58.816C132.314 63.232 127.323 65.44 120.858 65.44C115.802 65.44 111.546 64.704 108.09 63.232V79.84C108.09 82.4 109.242 84 111.546 84.64L113.37 85.12V86.08H90.0425ZM116.25 62.656C119.45 62.656 121.978 60.992 123.834 57.664C125.754 54.336 126.714 48.8 126.714 41.056C126.714 33.312 125.818 27.904 124.026 24.832C122.234 21.696 119.642 20.128 116.25 20.128C113.882 20.128 111.258 20.896 108.378 22.432V61.12C110.81 62.144 113.434 62.656 116.25 62.656ZM156.687 65.44C152.591 65.44 149.391 64.416 147.087 62.368C144.847 60.32 143.727 57.056 143.727 52.576V19.744H137.103V18.784L139.407 18.4C141.391 17.952 143.087 17.312 144.495 16.48C145.967 15.648 147.407 14.528 148.815 13.12L156.687 4.384H157.647L157.359 17.824H168.111V19.744H157.263V54.304C157.263 56.544 157.743 58.24 158.703 59.392C159.727 60.544 161.007 61.12 162.543 61.12C163.887 61.12 165.071 60.8 166.095 60.16C167.119 59.456 168.143 58.528 169.167 57.376L170.127 58.336C168.847 60.512 167.087 62.24 164.847 63.52C162.607 64.8 159.887 65.44 156.687 65.44ZM184.561 65.44C180.465 65.44 177.265 64.416 174.961 62.368C172.721 60.32 171.601 57.056 171.601 52.576V19.744H164.977V18.784L167.281 18.4C169.265 17.952 170.961 17.312 172.369 16.48C173.841 15.648 175.281 14.528 176.689 13.12L184.561 4.384H185.521L185.233 17.824H195.985V19.744H185.137V54.304C185.137 56.544 185.617 58.24 186.577 59.392C187.601 60.544 188.881 61.12 190.417 61.12C191.761 61.12 192.945 60.8 193.969 60.16C194.993 59.456 196.017 58.528 197.041 57.376L198.001 58.336C196.721 60.512 194.961 62.24 192.721 63.52C190.481 64.8 187.761 65.44 184.561 65.44ZM218.295 65.44C213.431 65.44 209.207 64.448 205.623 62.464C202.039 60.416 199.255 57.536 197.271 53.824C195.351 50.112 194.391 45.76 194.391 40.768C194.391 35.776 195.415 31.456 197.463 27.808C199.575 24.16 202.423 21.344 206.007 19.36C209.655 17.376 213.751 16.384 218.295 16.384C222.839 16.384 226.903 17.376 230.487 19.36C234.071 21.28 236.887 24.064 238.935 27.712C241.047 31.36 242.103 35.712 242.103 40.768C242.103 45.824 241.111 50.208 239.127 53.92C237.207 57.568 234.455 60.416 230.871 62.464C227.351 64.448 223.159 65.44 218.295 65.44ZM218.295 63.52C220.535 63.52 222.327 62.88 223.671 61.6C225.015 60.32 225.975 58.048 226.551 54.784C227.191 51.52 227.511 46.912 227.511 40.96C227.511 34.944 227.191 30.304 226.551 27.04C225.975 23.776 225.015 21.504 223.671 20.224C222.327 18.944 220.535 18.304 218.295 18.304C216.055 18.304 214.231 18.944 212.823 20.224C211.479 21.504 210.487 23.776 209.847 27.04C209.271 30.304 208.983 34.944 208.983 40.96C208.983 46.912 209.271 51.52 209.847 54.784C210.487 58.048 211.479 60.32 212.823 61.6C214.231 62.88 216.055 63.52 218.295 63.52ZM264.451 65.44C259.587 65.44 255.363 64.448 251.779 62.464C248.195 60.416 245.411 57.536 243.427 53.824C241.507 50.112 240.547 45.76 240.547 40.768C240.547 35.776 241.571 31.456 243.619 27.808C245.731 24.16 248.579 21.344 252.163 19.36C255.811 17.376 259.907 16.384 264.451 16.384C268.995 16.384 273.059 17.376 276.643 19.36C280.227 21.28 283.043 24.064 285.091 27.712C287.203 31.36 288.259 35.712 288.259 40.768C288.259 45.824 287.267 50.208 285.283 53.92C283.363 57.568 280.611 60.416 277.027 62.464C273.507 64.448 269.315 65.44 264.451 65.44ZM264.451 63.52C266.691 63.52 268.483 62.88 269.827 61.6C271.171 60.32 272.131 58.048 272.707 54.784C273.347 51.52 273.667 46.912 273.667 40.96C273.667 34.944 273.347 30.304 272.707 27.04C272.131 23.776 271.171 21.504 269.827 20.224C268.483 18.944 266.691 18.304 264.451 18.304C262.211 18.304 260.387 18.944 258.979 20.224C257.635 21.504 256.643 23.776 256.003 27.04C255.427 30.304 255.139 34.944 255.139 40.96C255.139 46.912 255.427 51.52 256.003 54.784C256.643 58.048 257.635 60.32 258.979 61.6C260.387 62.88 262.211 63.52 264.451 63.52Z" fill="#2C822B"/>
</svg>
