<?xml version="1.0" ?><!-- Uploaded to: SVG Repo, www.svgrepo.com, Generator: SVG Repo Mixer Tools -->
<svg fill="#000000" width="800px" height="800px" viewBox="0 0 32 32" id="OBJECT" xmlns="http://www.w3.org/2000/svg"><title/><path d="M13.65,17.91a8.62,8.62,0,0,0-10,1.67A8.62,8.62,0,0,0,1.93,29.63a1,1,0,0,0,.44.44A8.38,8.38,0,0,0,6.23,31a8.73,8.73,0,0,0,6.19-2.6,8.62,8.62,0,0,0,1.67-10A1,1,0,0,0,13.65,17.91Z"/><path d="M18.35,14.09a8.51,8.51,0,0,0,3.86.93,8.77,8.77,0,0,0,6.19-2.6,8.62,8.62,0,0,0,1.67-10,1,1,0,0,0-.44-.44,8.62,8.62,0,0,0-10,1.67,8.62,8.62,0,0,0-1.67,10.05A1,1,0,0,0,18.35,14.09Z"/><path d="M18.35,17.91a1,1,0,0,0-.44.44,8.62,8.62,0,0,0,1.67,10A8.73,8.73,0,0,0,25.77,31a8.38,8.38,0,0,0,3.86-.93,1,1,0,0,0,.44-.44A8.76,8.76,0,0,0,18.35,17.91Z"/><path d="M2.37,1.93a1,1,0,0,0-.44.44A8.62,8.62,0,0,0,3.6,12.42,8.77,8.77,0,0,0,9.79,15a8.51,8.51,0,0,0,3.86-.93,1,1,0,0,0,.44-.44,8.62,8.62,0,0,0-1.67-10A8.62,8.62,0,0,0,2.37,1.93Z"/></svg>