<svg width="4232" height="762" viewBox="0 0 4232 762" fill="none" xmlns="http://www.w3.org/2000/svg">
<path d="M469.309 56.142L434.641 73.2183C310.573 134.329 232 260.619 232 398.921C232 599.439 394.552 761.99 595.07 761.99L3866.67 761.99C4068.44 761.99 4232 598.428 4232 396.664C4232 259.412 4155.07 133.742 4032.84 71.3142L4003.21 56.1833C3922.88 15.1558 3831.47 1.10278 3742.52 16.1071L3503.52 56.4247C3446.28 66.0808 3387.79 65.695 3330.68 55.2847L3078.82 9.37405C3019.43 -1.45235 2958.57 -1.43347 2899.19 9.42978L2647.91 55.3948C2591.39 65.7339 2533.52 66.2537 2476.82 56.9315L2195.17 10.6222C2124.55 -0.990417 2052.25 2.69529 1983.17 21.4301L1852.56 56.8543C1767.69 79.8719 1678.25 80.0997 1593.26 57.5148L1468.67 24.4046C1391.03 3.77257 1309.57 2.15072 1231.17 19.6764L1103.14 48.299C1036.1 63.2852 966.692 64.2974 899.246 51.2725L737.805 20.0955C646.77 2.51511 552.484 15.1734 469.309 56.142Z" fill="url(#paint0_linear_1208_15)"/>
<path d="M237.309 56.1541L202.641 73.2304C78.5734 134.341 3.14441e-08 260.631 0 398.933C-4.5583e-08 599.451 162.552 762.002 363.07 762.003L3614.38 762.002C3827.35 762.002 4000 589.356 4000 376.387V355.232C4000 241.213 3943.75 134.537 3849.66 70.1318C3777.28 20.583 3688.76 0.421669 3602.05 13.7374L3311.11 58.4209C3256.74 66.7708 3201.37 66.0923 3147.22 56.4125L2878.06 8.29501C2821.44 -1.82571 2763.51 -2.10314 2706.8 7.47491L2425.37 55.0085C2362.7 65.5935 2298.58 64.1328 2236.46 50.7046L2072.88 15.345C2004.71 0.611415 1934.22 0.299397 1865.93 14.429L1611.63 67.0461C1532.39 83.4397 1450.37 80.3602 1372.59 58.0721L1264.07 26.976C1186.19 4.65986 1104.06 1.60105 1024.73 18.0628L867.567 50.6797C802.832 64.1142 736.075 64.5768 671.16 52.0405L505.805 20.1077C414.77 2.52725 320.484 15.1855 237.309 56.1541Z" fill="url(#paint1_linear_1208_15)" fill-opacity="0.8"/>
<defs>
<linearGradient id="paint0_linear_1208_15" x1="2116" y1="762.006" x2="2116" y2="0.484462" gradientUnits="userSpaceOnUse">
<stop stop-color="#288128"/>
<stop offset="1" stop-color="#57D156"/>
</linearGradient>
<linearGradient id="paint1_linear_1208_15" x1="2000" y1="762.006" x2="2000" y2="-6.99624" gradientUnits="userSpaceOnUse">
<stop stop-color="#288128"/>
<stop offset="1" stop-color="#3DB53B"/>
</linearGradient>
</defs>
</svg>
